<svg xmlns="http://www.w3.org/2000/svg" width="60" height="60" fill="none" viewBox="0 0 60 60">
  <rect width="60" height="60" fill="#EEE5FF" rx="16"/>
  <path fill="#7F3DFF" d="M46.25 41.25A1.25 1.25 0 0045 42.5a2.5 2.5 0 11-3.75-2.175 1.25 1.25 0 002.1 1.075l1.762-1.762a1.25 1.25 0 000-1.776L43.35 36.1a1.252 1.252 0 00-1.775 0 1.25 1.25 0 00-.163 1.512A5 5 0 1047.5 42.5a1.25 1.25 0 00-1.25-1.25z"/>
  <path fill="#7F3DFF" d="M40.725 16.913a3.75 3.75 0 00-3.65-.163l-.375.188a1.249 1.249 0 01-1.025 0l-4.287-1.675a3.75 3.75 0 00-2.776 0l-4.287 1.712a1.249 1.249 0 01-1.025 0l-.375-.188A3.75 3.75 0 0017.5 20.1v18.65A6.25 6.25 0 0023.75 45h11.725A7.225 7.225 0 0135 42.5v-.1a7.5 7.5 0 013.913-6.575 3.75 3.75 0 01.937-1.6l.15-.138c.237-.208.497-.388.775-.537.459-.233.961-.37 1.475-.4h.25V20.1a3.75 3.75 0 00-1.775-3.188zM32.5 36.25H25a1.25 1.25 0 010-2.5h7.5a1.25 1.25 0 010 2.5zm2.5-7.5H25a1.25 1.25 0 010-2.5h10a1.25 1.25 0 010 2.5z"/>
</svg>
