<svg xmlns="http://www.w3.org/2000/svg" width="60" height="60" fill="none" viewBox="0 0 60 60">
  <rect width="60" height="60" fill="#FDD5D7" rx="16"/>
  <path fill="#FD3C4A" d="M37.5 15a6.25 6.25 0 00-6.25 6.25v2.5a6.25 6.25 0 005 6.125v2.85a3.75 3.75 0 00-2.5 3.525v5a3.75 3.75 0 007.5 0v-5a3.75 3.75 0 00-2.5-3.525v-2.85a6.25 6.25 0 005-6.125v-2.5A6.25 6.25 0 0037.5 15zM27.5 15a1.25 1.25 0 00-1.25 1.25v5a1.25 1.25 0 01-2.5 0v-5a1.25 1.25 0 00-2.5 0v5a1.25 1.25 0 01-2.5 0v-5a1.25 1.25 0 00-2.5 0v7.5a6.25 6.25 0 005 6.125v2.85a3.75 3.75 0 00-2.5 3.525v5a3.75 3.75 0 007.5 0v-5a3.75 3.75 0 00-2.5-3.525v-2.85a6.25 6.25 0 005-6.125v-7.5A1.25 1.25 0 0027.5 15z"/>
</svg>
