<svg xmlns="http://www.w3.org/2000/svg" width="60" height="60" fill="none" viewBox="0 0 60 60">
  <rect width="60" height="60" fill="#FCEED4" rx="16"/>
  <path fill="#FCAC12" d="M41.25 35H18.225l1 5a6.25 6.25 0 006.125 5h9.3a6.25 6.25 0 006.125-5l1-5h-.525zm-12.5 6.25a1.25 1.25 0 01-2.5 0v-2.5a1.25 1.25 0 012.5 0v2.5zm5 0a1.25 1.25 0 01-2.5 0v-2.5a1.25 1.25 0 012.5 0v2.5zM41.25 22.5h-2.5v-1.25A6.25 6.25 0 0032.5 15h-5a6.25 6.25 0 00-6.25 6.25v1.25h-2.5A3.75 3.75 0 0015 26.25v2.5a3.75 3.75 0 003.75 3.75h22.5A3.75 3.75 0 0045 28.75v-2.5a3.75 3.75 0 00-3.75-3.75zm-17.5-1.25a3.75 3.75 0 013.75-3.75h5a3.75 3.75 0 013.75 3.75v1.25h-12.5v-1.25z"/>
</svg>
